<svg width="95" height="50" viewBox="0 0 95 50" fill="none" xmlns="http://www.w3.org/2000/svg">
<path d="M52.07 31.7615V21.4141H54.1593V31.7615H52.07Z" fill="#784033"/>
<path d="M62.9176 31.7615H60.9342V27.9359C60.9342 27.1266 60.8919 26.6042 60.8072 26.369C60.7225 26.129 60.5836 25.9431 60.3907 25.8114C60.2025 25.6796 59.9743 25.6137 59.7061 25.6137C59.3626 25.6137 59.0543 25.7078 58.7814 25.8961C58.5085 26.0843 58.3203 26.3337 58.2168 26.6442C58.1179 26.9548 58.0685 27.5289 58.0685 28.3665V31.7615H56.0852V24.2656H57.9274V25.3667C58.5814 24.5197 59.4049 24.0962 60.3978 24.0962C60.8354 24.0962 61.2354 24.1762 61.5977 24.3362C61.96 24.4915 62.2329 24.6915 62.4164 24.9361C62.6047 25.1808 62.7341 25.4585 62.8047 25.769C62.8799 26.0796 62.9176 26.5243 62.9176 27.103V31.7615Z" fill="#784033"/>
<path d="M68.3575 28.3947L70.3903 28.1971C70.5126 28.8794 70.7597 29.3805 71.1314 29.7005C71.5078 30.0205 72.0137 30.1805 72.6489 30.1805C73.3218 30.1805 73.8277 30.0393 74.1665 29.757C74.51 29.4699 74.6817 29.1358 74.6817 28.7547C74.6817 28.51 74.6088 28.3029 74.4629 28.1335C74.3218 27.9594 74.0724 27.8089 73.7147 27.6818C73.4701 27.5971 72.9124 27.4465 72.0419 27.2301C70.922 26.9525 70.1362 26.6113 69.6845 26.2066C69.0492 25.6373 68.7316 24.9432 68.7316 24.1244C68.7316 23.5974 68.8798 23.1057 69.1763 22.6493C69.4774 22.1881 69.908 21.8375 70.4679 21.5976C71.0326 21.3576 71.7125 21.2376 72.5078 21.2376C73.8065 21.2376 74.7829 21.5223 75.437 22.0916C76.0957 22.661 76.4416 23.421 76.4745 24.3715L74.3853 24.4632C74.2959 23.9315 74.1029 23.5504 73.8065 23.3198C73.5148 23.0845 73.0748 22.9669 72.4866 22.9669C71.8796 22.9669 71.4043 23.0916 71.0608 23.341C70.8397 23.501 70.7291 23.7151 70.7291 23.9833C70.7291 24.228 70.8326 24.4374 71.0396 24.6115C71.3032 24.8326 71.9431 25.0632 72.9595 25.3032C73.9759 25.5432 74.7264 25.7925 75.2111 26.0514C75.7005 26.3054 76.0816 26.656 76.3545 27.103C76.6322 27.5454 76.771 28.0935 76.771 28.7476C76.771 29.3405 76.6063 29.8958 76.2769 30.4134C75.9475 30.931 75.4817 31.3168 74.8794 31.5709C74.2771 31.8203 73.5265 31.945 72.6278 31.945C71.3196 31.945 70.315 31.6439 69.6139 31.0416C68.9127 30.4345 68.494 29.5523 68.3575 28.3947Z" fill="#784033"/>
<path d="M78.471 23.2492V21.4141H80.4544V23.2492H78.471ZM78.471 31.7615V24.2656H80.4544V31.7615H78.471Z" fill="#784033"/>
<path d="M85.8883 24.2656V25.8467H84.5331V28.8676C84.5331 29.4793 84.5448 29.8369 84.5684 29.9405C84.5966 30.0393 84.6554 30.1216 84.7448 30.1875C84.8389 30.2534 84.9519 30.2863 85.0836 30.2863C85.2671 30.2863 85.533 30.2228 85.8812 30.0958L86.0506 31.6345C85.5895 31.8321 85.0672 31.9309 84.4837 31.9309C84.126 31.9309 83.8037 31.8721 83.5167 31.7545C83.2296 31.6321 83.0179 31.4768 82.8814 31.2886C82.7497 31.0957 82.6579 30.8369 82.6062 30.5122C82.5638 30.2816 82.5426 29.8158 82.5426 29.1146V25.8467H81.6321V24.2656H82.5426V22.7763L84.5331 21.6187V24.2656H85.8883Z" fill="#784033"/>
<path d="M92.155 31.7615V30.6392C91.8821 31.0392 91.5221 31.3545 91.0751 31.5851C90.6328 31.8156 90.1646 31.9309 89.6705 31.9309C89.167 31.9309 88.7153 31.8203 88.3153 31.5992C87.9153 31.378 87.6259 31.0674 87.4471 30.6675C87.2683 30.2675 87.1789 29.7146 87.1789 29.0088V24.2656H89.1623V27.71C89.1623 28.7641 89.1976 29.4111 89.2682 29.6511C89.3435 29.8864 89.4776 30.0746 89.6705 30.2157C89.8634 30.3522 90.1081 30.4204 90.4046 30.4204C90.7434 30.4204 91.0469 30.3287 91.3151 30.1452C91.5833 29.9569 91.7668 29.7264 91.8656 29.4534C91.9644 29.1758 92.0138 28.5006 92.0138 27.4277V24.2656H93.9972V31.7615H92.155Z" fill="#784033"/>
<path d="M1 25.0219C1 38.3041 11.6959 49 24.7589 49C28.5288 49 32.0356 48.1671 35.3233 46.5452C35.3233 46.5452 35.4548 46.5452 35.3233 46.4137H35.1918C32.737 47.3342 30.1507 47.9479 27.3014 47.9479C15.4658 47.9479 5.73425 38.1726 5.73425 26.074C5.73425 13.9753 15.4658 4.06849 27.4767 4.06849C35.937 4.06849 43.3452 9.02192 46.8959 16.1671C46.8959 16.1671 46.8959 16.2986 47.0274 16.1671C47.1589 16.1671 47.0274 16.0356 47.0274 16.0356C43.5205 7.22466 34.9288 1 24.8027 1C11.6959 1 1 11.6959 1 25.0219Z" fill="#783F34"/>
<path d="M24.2329 43.8274C23.7068 43.7397 23.2247 43.6959 22.7425 43.5205C21.0329 42.9068 19.3233 42.2493 17.6575 41.5918C17.3945 41.5041 17.3068 41.3288 17.3068 41.0219C17.3068 30.9836 17.3068 20.9452 17.3068 10.9507C17.3068 10.863 17.3068 10.7315 17.3507 10.6C17.6575 10.6 17.9205 10.6 18.1836 10.6C20.0247 10.6 21.8219 10.6 23.663 10.6C24.1452 10.6 24.2767 10.7753 24.2767 11.2137C24.2767 15.0712 24.2767 18.9726 24.2767 22.8301C24.2767 29.537 24.2767 36.2438 24.2767 42.9945C24.2767 43.2137 24.2767 43.4329 24.2329 43.8274ZM23.7068 19.2795C22.8301 19.2795 21.9973 19.2795 21.1205 19.2795C20.3753 19.2795 20.3753 19.2795 20.3753 20.0247C20.3753 20.726 20.3753 20.726 21.0767 20.726C21.3397 20.726 21.6027 20.726 21.8658 20.726C22.4795 20.726 23.0932 20.726 23.7507 20.726C23.7068 20.2 23.7068 19.7616 23.7068 19.2795ZM23.7068 25.8986C22.9178 25.8986 22.1288 25.8986 21.3397 25.8986C20.3315 25.8986 20.3315 25.8986 20.3753 26.9068C20.3753 27.2137 20.5068 27.3452 20.8137 27.3452C21.5151 27.3452 22.2164 27.3452 22.9178 27.3452C23.1808 27.3452 23.4438 27.3014 23.7507 27.3014C23.7068 26.8192 23.7068 26.3808 23.7068 25.8986ZM23.663 32.5616C22.874 32.5616 22.0849 32.5616 21.2959 32.5616C20.3315 32.5616 20.3315 32.5616 20.3753 33.5699C20.3753 33.9205 20.5068 34.0082 20.8575 34.0082C21.4274 34.0082 21.9973 34.0082 22.611 34.0082C23.8822 33.9644 23.8822 33.9644 23.663 32.5616ZM23.7507 14.0192C23.7507 13.6247 23.7945 13.274 23.7507 12.9233C23.7507 12.7918 23.5753 12.6164 23.4438 12.6164C22.5233 12.5726 21.6027 12.6164 20.726 12.6164C20.6384 12.6164 20.463 12.7918 20.4192 12.8795C20.3753 13.2301 20.4192 13.5808 20.4192 13.9753C21.5151 14.0192 22.5671 14.0192 23.7507 14.0192ZM23.7068 39.2685C23.6192 39.2685 23.5315 39.2247 23.4877 39.2247C22.7425 39.2247 22.0411 39.2247 21.2959 39.2247C20.3315 39.2247 20.2 39.4 20.3753 40.3205C20.4192 40.4082 20.5068 40.5836 20.5945 40.5836C21.6027 40.5836 22.6548 40.5836 23.7068 40.5836C23.7068 40.1014 23.7068 39.7069 23.7068 39.2685ZM19.674 12.0904C19.674 11.6521 19.3671 11.3452 18.9288 11.3452C18.4904 11.3452 18.1397 11.6959 18.1836 12.0904C18.1836 12.4849 18.5342 12.8356 18.9288 12.8356C19.3233 12.8795 19.674 12.4849 19.674 12.0904ZM23.7068 16.211C23.2685 16.211 22.8301 16.1671 22.3918 16.211C22.3041 16.211 22.1288 16.5178 22.1288 16.6493C22.1288 16.8247 22.2603 17.1315 22.3918 17.1315C22.8301 17.1753 23.2685 17.1753 23.7068 17.1753C23.7068 16.8247 23.7068 16.5178 23.7068 16.211ZM23.7068 22.8301C23.2247 22.8301 22.7863 22.7863 22.3918 22.8301C22.2603 22.8301 22.1288 23.0932 22.1288 23.2685C22.1288 23.4438 22.2603 23.7507 22.3479 23.7507C22.7863 23.7945 23.2247 23.7945 23.663 23.7945C23.7068 23.4438 23.7068 23.1808 23.7068 22.8301ZM23.7068 29.4493C23.2685 29.4493 22.874 29.4055 22.4795 29.4493C22.3479 29.4493 22.1726 29.6685 22.1288 29.8C22.0411 30.2384 22.2164 30.4575 22.6986 30.4137C23.0055 30.3699 23.3562 30.4137 23.7068 30.4137C23.7068 30.1069 23.7068 29.8438 23.7068 29.4493ZM23.7507 37.0767C23.7507 36.8137 23.7945 36.5945 23.7507 36.4192C23.7068 36.2877 23.6192 36.1562 23.4877 36.1123C23.137 36.0685 22.7425 36.0685 22.3918 36.1123C22.2603 36.1562 22.1288 36.4192 22.1288 36.5945C22.1288 36.726 22.2603 37.0329 22.3918 37.0329C22.8301 37.0767 23.2685 37.0767 23.7507 37.0767Z" fill="#783F34"/>
<path d="M33.3945 32.2986C33.4822 32.3425 33.6137 32.4301 33.7014 32.474C35.5863 33.3069 37.7781 32.3425 38.5671 30.3699C38.6986 30.063 38.8301 29.9315 39.137 29.8877C41.6795 29.537 42.9507 27.0822 41.7233 24.7589C41.6356 24.5836 41.5918 24.2767 41.6795 24.1014C43.2137 20.2 40.7589 16.211 36.5945 15.8603C36.2 15.8164 36.0247 15.7288 35.8931 15.3342C35.1479 12.8356 32.6932 11.3452 30.1507 11.9151C29.0986 12.1342 28.2219 12.6603 27.6082 13.5808C29.1425 12.4849 30.7644 12.1781 32.474 13.0986C34.2274 14.0192 34.7096 15.6411 34.5342 17.5699C36.6384 17.1753 38.3918 17.6575 39.5753 19.4548C40.7589 21.2521 40.4082 23.0493 39.3123 24.7151C40.4959 25.9863 40.7151 26.4685 40.4082 27.3014C39.8822 28.6164 38.7863 28.7479 37.6027 28.5726C37.9096 31.2027 35.8932 32.7808 33.3945 32.2986ZM29.8 21.5589C29.5808 28.8795 29.3616 36.2877 29.1425 43.6959C29.8877 43.6959 30.6329 43.6959 31.3781 43.6959C31.3781 43.4767 31.3781 43.2575 31.3781 43.0822C31.2466 39.2685 31.1151 35.4548 30.9397 31.6411C30.8959 30.5014 31.0712 29.537 31.8164 28.6164C32.5178 27.7397 33.0877 26.7753 33.7014 25.811C33.9205 25.4603 34.1836 25.1096 34.4027 24.7589C34.3589 24.7589 34.3589 24.7151 34.3151 24.7151C33.1753 25.8986 32.0795 27.0822 30.8521 28.3534C30.5014 25.9863 30.1507 23.7507 29.8 21.5589Z" fill="#783F34"/>
<path d="M33.3945 32.2986C35.8932 32.7808 37.8658 31.2027 37.6904 28.5726C38.874 28.7479 40.0137 28.6164 40.4959 27.3014C40.8027 26.4685 40.5836 25.9863 39.4 24.7151C40.4959 23.0493 40.8466 21.2521 39.663 19.4548C38.4795 17.6575 36.7699 17.1753 34.6219 17.5699C34.7973 15.6411 34.3151 14.0192 32.5616 13.0986C30.8521 12.1781 29.2301 12.4849 27.6959 13.5808C28.3096 12.6603 29.1863 12.1342 30.2384 11.9151C32.7808 11.389 35.1918 12.8356 35.9808 15.3342C36.1123 15.7288 36.2877 15.8164 36.6822 15.8603C40.8466 16.1671 43.3014 20.2 41.7671 24.1014C41.6795 24.2767 41.7233 24.5836 41.811 24.7589C43.0384 27.0384 41.7671 29.537 39.2247 29.8877C38.874 29.9315 38.7863 30.1068 38.6548 30.3699C37.8219 32.3425 35.6301 33.3069 33.789 32.474C33.6137 32.4301 33.526 32.3863 33.3945 32.2986Z" fill="#783F34"/>
<path d="M29.8 21.5589C30.1507 23.7507 30.5014 25.9863 30.8521 28.3973C32.0795 27.126 33.1753 25.9425 34.3151 24.7589C34.3589 24.7589 34.3589 24.8027 34.4027 24.8027C34.1836 25.1534 33.9205 25.5041 33.7014 25.8548C33.0877 26.7753 32.5178 27.7836 31.8164 28.6603C31.0712 29.5808 30.8959 30.5452 30.9397 31.6849C31.1151 35.4986 31.2466 39.3123 31.3781 43.126C31.3781 43.3014 31.3781 43.5205 31.3781 43.7397C30.6329 43.7397 29.9315 43.7397 29.1425 43.7397C29.3616 36.2877 29.5808 28.8795 29.8 21.5589Z" fill="#783F34"/>
</svg>
